:SAMPLES-PER-SECOND 30
:FRAME-RANGE 1-3549
:FULLY-SPECIFIED
:DEGREES
222
root  -22.9248 38.6595 -2.87925 -177.858 78.1089 -177.911
RightUpLeg  -20.7917 -0.317035 -2.79284
RightLeg  6.55027 -11.3326 -3.20319
RightFoot  3.32134 -0.58719 4.73727
RightToes  1.218e-010 1.26228e-014 -6.01869e-014
Spine  -5.77078 0.804669 2.62295
Spine1  5.39776 0.107259 1.72013
HEad  16.2277 10.6867 1.28765
LeftShoulder1  0.705965 -4.03978 -1.59695
LeftArm  -47.0044 -55.3172 -7.8242
LeftForeArm  54.0438 -48.9454 -8.93834
LeftHand  0.0556905 8.91246 3.2571
RightShoulder  1.88239 2.7426 25.0657
RightArm  -22.6032 2.92223 44.5357
RightForeArm  70.9499 -5.19702 4.67305
RightHand  0.111974 -6.37262 -15.2598
LeftUpLeg  13.4867 -1.11103 3.04929
LeftLeg  14.1109 -7.91792 -0.281991
LeftFoot  -17.8994 -0.247546 -6.18741
LeftToes  -1.43952e-010 7.51141e-011 -1.22592e-011
223
root  -21.4094 38.7449 -2.69773 -173.556 78.2341 -173.665
RightUpLeg  -20.8239 -0.641482 -1.67555
RightLeg  9.96022 -10.0567 -2.70864
RightFoot  5.73803 -0.888563 6.17375
RightToes  1.218e-010 1.26228e-014 -6.01869e-014
Spine  -6.78054 0.755173 4.49103
Spine1  5.94408 -0.0603157 1.96657
HEad  17.6372 11.5625 1.13812
LeftShoulder1  0.894731 -4.24694 -4.13233
LeftArm  -34.9012 -53.2592 -14.5151
LeftForeArm  53.3295 -46.3282 -8.05027
LeftHand  -0.00749167 7.80366 1.5764
RightShoulder  1.78143 2.29385 25.7778
RightArm  -22.1992 2.87783 45.5788
RightForeArm  71.8315 -5.45692 4.86726
RightHand  0.145377 -6.5969 -15.6366
LeftUpLeg  13.8014 -4.62893 4.06851
LeftLeg  17.2063 -4.84462 -1.18739
LeftFoot  -14.934 -0.216702 -9.73825
LeftToes  -1.43952e-010 7.51141e-011 -1.22592e-011
224
root  -19.9696 38.8183 -2.48548 -167.205 78.483 -167.54
RightUpLeg  -20.4395 -1.84853 -0.0795508
RightLeg  12.6201 -8.81505 -1.48937
RightFoot  4.5726 -0.88532 6.55104
RightToes  1.218e-010 1.26228e-014 -6.01869e-014
Spine  -7.19258 0.544301 6.37226
Spine1  6.01021 -0.353458 2.55545
HEad  18.9268 13.1462 0.434671
LeftShoulder1  1.05813 -3.96132 -7.19159
LeftArm  -23.4656 -49.5349 -20.7227
LeftForeArm  51.8877 -44.2052 -7.44
LeftHand  -0.0216233 7.37624 1.0066
RightShoulder  1.75301 2.15399 26.0816
RightArm  -22.1109 2.60851 46.9913
RightForeArm  72.9894 -5.42316 4.94396
RightHand  0.166137 -6.77613 -15.4108
LeftUpLeg  11.6252 -3.51737 6.74468
LeftLeg  23.8659 -5.3799 -2.26995
LeftFoot  -10.1022 0.202381 -13.0918
LeftToes  -1.43952e-010 7.51141e-011 -1.22592e-011
225
root  -18.6603 38.8634 -2.24925 -161.132 78.4785 -161.826
RightUpLeg  -20.003 -1.40899 1.80819
RightLeg  14.6994 -8.65514 -1.43988
RightFoot  2.65797 -0.584331 4.90365
RightToes  1.218e-010 1.26228e-014 -6.01869e-014
Spine  -7.25192 0.247046 7.9608
Spine1  6.27527 -0.686423 3.38267
HEad  19.0368 14.3999 0.102017
LeftShoulder1  1.12777 -3.64522 -9.05551
LeftArm  -13.3392 -44.6079 -26.3741
LeftForeArm  48.3555 -41.6622 -6.86584
LeftHand  -0.0377299 7.03199 0.0412751
RightShoulder  1.73819 2.07131 26.3069
RightArm  -21.7201 2.14705 48.6516
RightForeArm  73.7656 -5.42972 5.17501
RightHand  0.171778 -6.89773 -14.6999
LeftUpLeg  7.01351 -1.71658 9.49373
LeftLeg  33.4883 -4.95999 -3.17633
LeftFoot  -2.96499 1.13392 -15.1699
LeftToes  -1.43952e-010 7.51141e-011 -1.22592e-011
226
root  -17.4519 38.8739 -2.0324 -156.405 78.5555 -157.243
RightUpLeg  -19.2921 -0.898356 3.42788
RightLeg  16.5233 -8.81423 -1.59357
RightFoot  0.59155 -0.348219 3.36861
RightToes  1.218e-010 1.26228e-014 -6.01869e-014
Spine  -6.41288 0.00511799 9.45338
Spine1  6.22917 -0.821109 3.75064
HEad  18.0829 15.2095 0.280969
LeftShoulder1  1.17736 -3.27846 -10.9012
LeftArm  -3.8437 -40.0609 -30.1838
LeftForeArm  44.6067 -38.3748 -6.14967
LeftHand  -0.0413517 6.53527 -0.513084
RightShoulder  1.73403 2.04041 26.4198
RightArm  -20.6124 1.96641 50.2312
RightForeArm  74.0675 -5.51442 5.76737
RightHand  0.14799 -6.77716 -14.0389
LeftUpLeg  1.48848 -0.785923 11.0044
LeftLeg  43.4538 -2.89021 -2.54027
LeftFoot  6.01696 2.25772 -14.9607
LeftToes  -1.43952e-010 7.51141e-011 -1.22592e-011
227
root  -16.3095 38.8331 -1.87442 -151.37 79.1383 -151.958
RightUpLeg  -18.2729 -1.44077 4.79719
RightLeg  18.4967 -7.4029 -1.04469
RightFoot  -2.13273 -0.189633 2.17328
RightToes  1.218e-010 1.26228e-014 -6.01869e-014
Spine  -5.24425 0.0563873 11.0687
Spine1  6.51949 -0.51173 3.63145
HEad  16.6539 15.5431 0.503601
LeftShoulder1  1.20741 -2.93667 -12.5193
LeftArm  5.42204 -35.7658 -34.1762
LeftForeArm  41.9483 -34.5473 -5.30763
LeftHand  -0.0425462 6.0368 -1.42777
RightShoulder  1.73871 2.05323 26.4303
RightArm  -19.0624 2.52318 51.5215
RightForeArm  74.0876 -5.64582 6.57999
RightHand  0.14415 -6.71065 -14.3561
LeftUpLeg  -3.60272 -0.0164342 11.5433
LeftLeg  51.8336 0.266301 0.81705
LeftFoot  14.2032 2.93753 -13.2977
LeftToes  -1.43952e-010 7.51141e-011 -1.22592e-011
228
root  -15.1003 38.9047 -1.71973 -146.917 80.4404 -147.398
RightUpLeg  -16.5557 -1.33404 5.71526
RightLeg  19.1727 -6.02951 -0.88905
RightFoot  -4.45185 -0.138028 1.78934
RightToes  1.218e-010 1.26228e-014 -6.01869e-014
Spine  -4.2298 0.281648 11.3263
Spine1  6.29568 -0.128314 3.6478
HEad  16.1637 15.681 0.836635
LeftShoulder1  1.18235 -2.45474 -13.8228
LeftArm  16.4598 -30.8966 -38.2734
LeftForeArm  36.4222 -29.9819 -4.52239
LeftHand  -0.040155 5.78587 -1.89557
RightShoulder  1.82373 2.29924 26.5358
RightArm  -17.7764 3.3894 52.4189
RightForeArm  75.2062 -5.70844 7.25165
RightHand  0.179921 -6.96733 -14.6659
LeftUpLeg  -8.08766 1.56279 11.261
LeftLeg  58.2723 2.06343 4.13437
LeftFoot  9.87131 2.2568 -12.3372
LeftToes  -1.43952e-010 7.51141e-011 -1.22592e-011
229
root  -13.8708 39.034 -1.58823 -143.258 82.21 -143.939
RightUpLeg  -14.7059 -1.14541 5.93336
RightLeg  19.1271 -4.48243 -0.733564
RightFoot  -6.42948 -0.108956 1.52173
RightToes  1.218e-010 1.26228e-014 -6.01869e-014
Spine  -3.98432 0.594693 11.2159
Spine1  6.51102 0.384649 2.84154
HEad  16.1761 15.4458 1.53017
LeftShoulder1  1.17683 -2.12016 -15.0993
LeftArm  29.7857 -26.3912 -41.3718
LeftForeArm  29.9841 -25.3214 -3.83965
LeftHand  -0.0342434 5.46518 -2.57386
RightShoulder  1.83015 2.30459 26.623
RightArm  -17.4451 4.61347 53.8675
RightForeArm  77.3166 -5.6356 7.34577
RightHand  0.221789 -7.34555 -14.3908
LeftUpLeg  -12.3661 2.78639 9.77545
LeftLeg  61.2342 2.50878 5.53334
LeftFoot  5.73566 1.33762 -9.12847
LeftToes  -1.43952e-010 7.51141e-011 -1.22592e-011
